<svg xmlns="http://www.w3.org/2000/svg" width="640" height="320">
  <rect width="640" height="320" x="0" y="0" fill="#3c1a5b" />
  <polygon points="257,195 320,233 383,195 383,124 320,86 257,124" fill="#fff748" />
  <g font-size="9pt" style="fill:#ccc415;stroke-width:0.3mm;stroke:#ccc415" transform="translate(274 147)">
    <rect x="55" y="-5" width="3" height="35" />
    <path d="M 78.174 0 L 90.674 12.5 L 78.174 25 L 76.27 23.071 L 86.816 12.5 L 76.27 1.953 L 78.174 0 Z M 26.88 12.5 L 37.427 23.071 L 35.547 25 L 23.047 12.5 L 35.547 0 L 37.427 1.953 L 26.88 12.5 Z M 4.541 1.416 L 4.541 5.981 L 0 5.981 L 0 1.416 L 4.541 1.416 Z M 4.541 19.629 L 4.541 24.17 L 0 24.17 L 0 19.629 L 4.541 19.629 Z" vector-effect="non-scaling-stroke"/>
  </g>
  <g font-size="9pt" style="fill:none;stroke-width:0.3mm;stroke:#3c1a5b" transform="translate(274 155)">
    <path d="M7.2 0.1L8.2 0.1 8.2 9.9 7.3 9.9 1 1.9 1 9.9 0 9.9 0 0.1 0.9 0.1 7.2 8 7.2 0.1ZM35.7 9L41.6 9 41.6 9.9 34.7 9.9 34.7 0.1 41.4 0.1 41.4 1 35.7 1 35.7 4.5 40.8 4.5 40.8 5.3 35.7 5.3 35.7 9ZM73.9 5.7L73.9 0.1 74.9 0.1 74.9 5.7Q74.9 6.7 75.2 7.5A2.5 2.5 0 0 0 75.7 8.2Q76.4 9 77.8 9A4.9 4.9 0 0 0 77.9 9 4.1 4.1 0 0 0 78.8 9Q79.4 8.8 79.8 8.5A2.3 2.3 0 0 0 80.2 8.2 2.6 2.6 0 0 0 80.7 7.3Q80.8 6.9 80.9 6.4A6.4 6.4 0 0 0 80.9 5.7L80.9 0.1 81.9 0.1 81.9 5.7A6.6 6.6 0 0 1 81.8 6.9Q81.7 7.6 81.4 8.1A3.3 3.3 0 0 1 80.9 8.9Q79.8 9.9 78 10A6.5 6.5 0 0 1 77.9 10Q76 10 74.9 8.9 73.9 7.8 73.9 5.7ZM59.9 9.9L58.8 9.9 56.5 6.7A7 7 0 0 1 55.9 6.8 7.7 7.7 0 0 1 55.8 6.8L53.1 6.8 53.1 9.9 52.1 9.9 52.1 0.1 55.8 0.1A6.3 6.3 0 0 1 56.9 0.2Q57.6 0.3 58.1 0.6A3.3 3.3 0 0 1 58.7 1Q59.8 1.9 59.8 3.4A3.8 3.8 0 0 1 59.7 4.4 2.9 2.9 0 0 1 59.2 5.4 3 3 0 0 1 58.1 6.3 4 4 0 0 1 57.5 6.5L59.9 9.9ZM46 9.9L46 1 42.5 1 42.5 0.1 50.4 0.1 50.4 1 47 1 47 9.9 46 9.9ZM87 9.9L87 1 83.5 1 83.5 0.1 91.4 0.1 91.4 1 88 1 88 9.9 87 9.9ZM23.1 9.9L23.1 0.1 27.1 0.1Q28.7 0.1 29.9 0.7 31.1 1.3 31.7 2.4A4.7 4.7 0 0 1 32.3 4.5 5.8 5.8 0 0 1 32.4 5 5.3 5.3 0 0 1 32.2 6.5 4.6 4.6 0 0 1 31.7 7.5Q31.1 8.6 29.9 9.3A5.4 5.4 0 0 1 28.1 9.8 7 7 0 0 1 27.1 9.9L23.1 9.9ZM13.9 9.7A5.6 5.6 0 0 0 15.7 10 6.3 6.3 0 0 0 16.1 10 5.2 5.2 0 0 0 18.3 9.3Q19.5 8.7 20.1 7.5A4.8 4.8 0 0 0 20.5 6.8 5.1 5.1 0 0 0 20.8 5Q20.8 3.6 20.1 2.4 19.5 1.3 18.3 0.6 17.1 0 15.7 0A6.3 6.3 0 0 0 15.4 0 5.3 5.3 0 0 0 13 0.7Q11.8 1.3 11.2 2.4A4.7 4.7 0 0 0 10.8 3.3 5.2 5.2 0 0 0 10.5 5 5.9 5.9 0 0 0 10.5 5.2 4.9 4.9 0 0 0 11.2 7.5Q11.8 8.7 13 9.3A5.1 5.1 0 0 0 13.9 9.7ZM64.7 9.7A5.6 5.6 0 0 0 66.5 10 6.3 6.3 0 0 0 66.9 10 5.2 5.2 0 0 0 69.1 9.3Q70.3 8.7 71 7.5A4.8 4.8 0 0 0 71.3 6.8 5.1 5.1 0 0 0 71.6 5Q71.6 3.6 71 2.4 70.3 1.3 69.1 0.6 68 0 66.5 0A6.3 6.3 0 0 0 66.2 0 5.3 5.3 0 0 0 63.9 0.7Q62.7 1.3 62 2.4A4.7 4.7 0 0 0 61.6 3.3 5.2 5.2 0 0 0 61.3 5 5.9 5.9 0 0 0 61.4 5.2 4.9 4.9 0 0 0 62 7.5Q62.7 8.7 63.9 9.3A5.1 5.1 0 0 0 64.7 9.7ZM24.2 9L27.1 9A5.5 5.5 0 0 0 28.2 8.9 4.2 4.2 0 0 0 29.3 8.5Q30.3 8 30.8 7.1A3.9 3.9 0 0 0 31.3 5.5 4.8 4.8 0 0 0 31.3 5 4.4 4.4 0 0 0 31.2 3.8 3.7 3.7 0 0 0 30.8 2.9Q30.3 2 29.3 1.5A4.3 4.3 0 0 0 27.9 1 5.7 5.7 0 0 0 27.1 1L24.2 1 24.2 9ZM15.7 9Q16.8 9 17.8 8.5 18.7 8 19.2 7.1A4.1 4.1 0 0 0 19.8 5.2 4.8 4.8 0 0 0 19.8 5 4.3 4.3 0 0 0 19.5 3.5 4 4 0 0 0 19.2 2.9Q18.7 2 17.8 1.4A4.2 4.2 0 0 0 16 0.9 5 5 0 0 0 15.7 0.9Q14.5 0.9 13.6 1.4 12.6 2 12.1 2.9A4 4 0 0 0 11.5 4.8 4.8 4.8 0 0 0 11.5 5 4.2 4.2 0 0 0 11.8 6.5 3.9 3.9 0 0 0 12.1 7.1Q12.6 8 13.6 8.5A4.2 4.2 0 0 0 15.5 9 5 5 0 0 0 15.7 9ZM66.5 9Q67.7 9 68.6 8.5 69.5 8 70.1 7.1A4.1 4.1 0 0 0 70.6 5.2 4.8 4.8 0 0 0 70.6 5 4.3 4.3 0 0 0 70.4 3.5 4 4 0 0 0 70.1 2.9Q69.5 2 68.6 1.4A4.2 4.2 0 0 0 66.8 0.9 5 5 0 0 0 66.5 0.9Q65.3 0.9 64.4 1.4 63.4 2 62.9 2.9A4 4 0 0 0 62.4 4.8 4.8 4.8 0 0 0 62.4 5 4.2 4.2 0 0 0 62.6 6.5 3.9 3.9 0 0 0 62.9 7.1Q63.4 8 64.4 8.5A4.2 4.2 0 0 0 66.3 9 5 5 0 0 0 66.5 9ZM55.7 1L53.1 1 53.1 5.9 55.7 5.9Q56.7 5.9 57.4 5.6A2.4 2.4 0 0 0 58 5.3 2.1 2.1 0 0 0 58.7 3.9 3.1 3.1 0 0 0 58.7 3.4 2.9 2.9 0 0 0 58.6 2.7 2 2 0 0 0 58 1.6 2.5 2.5 0 0 0 57.1 1.2Q56.5 1 55.7 1Z" vector-effect="non-scaling-stroke"/>
  </g>
</svg>
